<svg height="30pt" viewBox="0 0 512 512" width="30pt" xmlns="http://www.w3.org/2000/svg"><path d="m214.375 512h-172.75c-22.988281 0-41.625-18.636719-41.625-41.625v-172.75c0-22.988281 18.636719-41.625 41.625-41.625h172.75c22.988281 0 41.625 18.636719 41.625 41.625v172.75c0 22.988281-18.636719 41.625-41.625 41.625zm0 0" fill="#88e9ff"/><path d="m230.953125 259.441406c1.390625 4.152344 2.152344 8.589844 2.152344 13.207032v193.5625c0 11.496093-9.320313 20.8125-20.8125 20.8125h-193.5625c-5.890625 0-11.496094-1.230469-16.578125-3.441407 5.523437 16.511719 21.105468 28.417969 39.472656 28.417969h172.75c22.988281 0 41.625-18.636719 41.625-41.625v-172.75c0-17.09375-10.308594-31.777344-25.046875-38.183594zm0 0" fill="#2dd3f9"/><path d="m214.375 297.625v172.75h-172.75v-172.75zm0 0" fill="#c6e3f7"/><path d="m191.480469 297.625v129.042969c0 11.492187-9.320313 20.8125-20.8125 20.8125h-129.042969v22.894531h172.75v-172.75zm0 0" fill="#aacee0"/><path d="m156.097656 426.144531h-19.25v-92.097656c0-2.703125-1.402344-5.214844-3.703125-6.636719s-5.171875-1.554687-7.59375-.34375l-27.058593 13.53125c-3.855469 1.925782-5.417969 6.613282-3.488282 10.46875 1.925782 3.855469 6.613282 5.417969 10.472656 3.492188l15.761719-7.878906v79.464843h-19.253906c-4.308594 0-7.804687 3.496094-7.804687 7.804688 0 4.3125 3.496093 7.808593 7.804687 7.808593h54.113281c4.3125 0 7.804688-3.496093 7.804688-7.808593 0-4.308594-3.496094-7.804688-7.804688-7.804688zm0 0" fill="#2dd3f9"/><path d="m470.375 512h-172.75c-22.988281 0-41.625-18.636719-41.625-41.625v-172.75c0-22.988281 18.636719-41.625 41.625-41.625h172.75c22.988281 0 41.625 18.636719 41.625 41.625v172.75c0 22.988281-18.636719 41.625-41.625 41.625zm0 0" fill="#ffe266"/><path d="m486.953125 259.441406c1.390625 4.152344 2.152344 8.589844 2.152344 13.207032v193.5625c0 11.496093-9.320313 20.8125-20.8125 20.8125h-193.5625c-5.890625 0-11.496094-1.230469-16.578125-3.441407 5.523437 16.511719 21.105468 28.417969 39.472656 28.417969h172.75c22.988281 0 41.625-18.636719 41.625-41.625v-172.75c0-17.09375-10.308594-31.777344-25.046875-38.183594zm0 0" fill="#fcd21d"/><path d="m470.375 297.625v172.75h-172.75v-172.75zm0 0" fill="#c6e3f7"/><path d="m447.480469 297.625v129.042969c0 11.492187-9.320313 20.8125-20.8125 20.8125h-129.042969v22.894531h172.75v-172.75zm0 0" fill="#aacee0"/><path d="m439.675781 360.066406v-11.449218c0-15.777344-12.839843-28.617188-28.617187-28.617188h-38.503906c-17.503907 0-31.742188 14.238281-31.742188 31.738281v6.246094c0 4.3125 3.496094 7.804687 7.804688 7.804687 4.3125 0 7.804687-3.492187 7.804687-7.804687v-6.246094c0-8.890625 7.238281-16.128906 16.132813-16.128906h38.503906c7.171875 0 13.007812 5.835937 13.007812 13.007813v11.449218c0 7.171875-5.835937 13.007813-13.007812 13.007813h-28.097656c-4.3125 0-7.808594 3.492187-7.808594 7.804687 0 4.308594 3.496094 7.804688 7.808594 7.804688h28.097656c7.171875 0 13.007812 5.835937 13.007812 13.007812v11.445313c0 7.175781-5.835937 13.007812-13.007812 13.007812h-38.503906c-8.894532 0-16.132813-7.234375-16.132813-16.128906 0-4.3125-3.492187-7.804687-7.804687-7.804687-4.308594 0-7.804688 3.492187-7.804688 7.804687 0 17.5 14.238281 31.742187 31.742188 31.742187h38.503906c15.777344 0 28.617187-12.839843 28.617187-28.621093v-11.445313c0-8.195312-3.46875-15.589844-9.007812-20.8125 5.539062-5.222656 9.007812-12.617187 9.007812-20.8125zm0 0" fill="#fcd21d"/><path d="m342.375 256h-172.75c-22.988281 0-41.625-18.636719-41.625-41.625v-172.75c0-22.988281 18.636719-41.625 41.625-41.625h172.75c22.988281 0 41.625 18.636719 41.625 41.625v172.75c0 22.988281-18.636719 41.625-41.625 41.625zm0 0" fill="#ff5c64"/><path d="m358.953125 3.441406c1.390625 4.152344 2.152344 8.589844 2.152344 13.207032v193.5625c0 11.496093-9.320313 20.8125-20.8125 20.8125h-193.5625c-5.890625 0-11.496094-1.230469-16.578125-3.441407 5.523437 16.511719 21.105468 28.417969 39.472656 28.417969h172.75c22.988281 0 41.625-18.636719 41.625-41.625v-172.75c0-17.09375-10.308594-31.777344-25.046875-38.183594zm0 0" fill="#2dd3f9"/><path d="m358.953125 3.441406c1.390625 4.152344 2.152344 8.589844 2.152344 13.207032v193.5625c0 11.496093-9.320313 20.8125-20.8125 20.8125h-193.5625c-5.890625 0-11.496094-1.230469-16.578125-3.441407 5.523437 16.511719 21.105468 28.417969 39.472656 28.417969h172.75c22.988281 0 41.625-18.636719 41.625-41.625v-172.75c0-17.09375-10.308594-31.777344-25.046875-38.183594zm0 0" fill="#ff2444"/><path d="m342.375 41.625v172.75h-172.75v-172.75zm0 0" fill="#c6e3f7"/><path d="m319.480469 41.625v129.042969c0 11.492187-9.320313 20.8125-20.8125 20.8125h-129.042969v22.894531h172.75v-172.75zm0 0" fill="#aacee0"/><path d="m297.625 194.082031h-83.25c-3.402344 0-6.414062-2.203125-7.441406-5.445312-1.027344-3.242188.164062-6.777344 2.941406-8.738281l70.363281-49.613282c6.167969-4.394531 9.582031-10.835937 9.582031-18.113281v-.519531c0-18.132813-15.167968-33.757813-33.125-34.117188-9.171874-.164062-17.828124 3.246094-24.367187 9.660156-6.546875 6.414063-10.148437 14.992188-10.148437 24.152344 0 4.3125-3.496094 7.804688-7.808594 7.804688-4.308594 0-7.804688-3.492188-7.804688-7.804688 0-13.390625 5.269532-25.925781 14.832032-35.300781s22.210937-14.425781 35.613281-14.117187c26.699219.535156 48.417969 22.839843 48.417969 49.722656v.519531c0 12.285156-5.890626 23.527344-16.167969 30.847656l-50.277344 35.453125h58.640625c4.308594 0 7.804688 3.492188 7.804688 7.804688 0 4.308594-3.492188 7.804687-7.804688 7.804687zm0 0" fill="#ff2444"/></svg>